
<svg width="110px" height="101px" viewBox="111 -3 110 101" version="1.1" xmlns="http://www.w3.org/2000/svg" xmlns:xlink="http://www.w3.org/1999/xlink">
    <!-- Generator: Sketch 42 (36781) - http://www.bohemiancoding.com/sketch -->
    <desc>Created with Sketch.</desc>
    <defs>
        <linearGradient x1="4.64410041%" y1="-8.46459634%" x2="136.017784%" y2="124.5192%" id="linearGradient-1">
            <stop stop-color="#20E2D7" offset="0%"></stop>
            <stop stop-color="#F9FEA5" offset="100%"></stop>
        </linearGradient>
    </defs>
    <path d="M210.869634,67.0786496 C217.849404,45.5028331 205.417349,17.6254807 180.936941,0.332252813 C180.228007,-0.167863372 179.259197,-0.0983051176 178.633358,0.506576707 C178.005754,1.10879882 177.899667,2.06940597 178.377012,2.79401996 C188.958027,18.8202778 191.677087,35.0569685 185.989682,47.7118825 C169.037039,36.3072139 138.375951,9.68456972 138.055971,9.4072383 C137.377089,8.81380676 136.358765,8.81380676 135.676353,9.4072383 C134.99394,9.99981332 134.856036,11.0026603 135.352843,11.7563057 C135.830187,12.4783051 144.397547,25.423804 153.622562,36.6796639 C146.971597,31.9480346 139.631204,25.9582259 126.575075,15.0853647 C125.896192,14.51835 124.90439,14.5271405 124.232569,15.1020893 C123.560747,15.6778946 123.406957,16.6534683 123.868371,17.4071588 C136.802483,38.5524624 158.330476,58.1613084 168.941543,67.1508675 C144.484127,78.0651121 116.593377,60.1053782 116.305214,59.9169443 C115.583879,59.4467612 114.636295,59.5436378 114.029917,60.1476181 C113.423539,60.7515983 113.326278,61.6989971 113.796563,62.4139189 C119.130406,70.4930898 126.461973,76.497865 135.828422,83.0291732 C148.295825,91.7246763 160.703079,95 171.268208,95 C182.188665,95 191.139638,91.4992769 196.148161,86.8627211 C196.169387,86.8363043 198.412867,84.5294767 203.382512,85.9787497 C207.344424,87.1321635 212.802005,91.4763763 214.711339,93.4380723 C215.170987,93.9100136 215.85874,94.0966443 216.49517,93.9205623 C217.13341,93.7427222 217.624875,93.2320573 217.775135,92.5893084 C218.25601,90.520232 218.5,88.3859702 218.5,86.2481922 C218.5,79.0477182 215.798591,72.2839782 210.869634,67.0786496 Z" id="Shape" stroke="url(#linearGradient-1)" stroke-width="4.19999993" fill="none"></path>
</svg>