
<svg width="865px" height="738px" viewBox="335 80 865 738" version="1.1" xmlns="http://www.w3.org/2000/svg" xmlns:xlink="http://www.w3.org/1999/xlink">
    <!-- Generator: Sketch 42 (36781) - http://www.bohemiancoding.com/sketch -->
    <desc>Created with Sketch.</desc>
    <defs>
        <linearGradient x1="60.523831%" y1="281.309705%" x2="77.4232567%" y2="-207.52985%" id="linearGradient-1">
            <stop stop-color="#1FE2D8" offset="0%"></stop>
            <stop stop-color="#F9FEA5" offset="100%"></stop>
        </linearGradient>
        <linearGradient x1="-490.766103%" y1="61.9140829%" x2="378.401203%" y2="228.280792%" id="linearGradient-2">
            <stop stop-color="#20E2D7" offset="0%"></stop>
            <stop stop-color="#F9FEA5" offset="100%"></stop>
        </linearGradient>
    </defs>
    <g id="noun_13397_cc" opacity="0.1" stroke="none" stroke-width="1" fill="none" fill-rule="evenodd" transform="translate(830.304973, 619.530709) rotate(-32.000000) translate(-830.304973, -619.530709) translate(809.304973, 569.530709)">
        <g id="Group" fill="#000000">
            <g id="Shape">
                <path d="M11.843,72.303 C14.635,71.528 16.418,76.045 15.582,77.29 C14.752,78.539 9.557,80.619 8.726,78.954 C7.89,77.29 8.102,73.342 11.843,72.303 Z"></path>
                <path d="M19.205,61.184 L32.846,61.081 L32.827,58.581 L19.323,58.683 L19.523,54.466 L31.654,55.875 L31.943,53.393 L19.642,51.964 L19.835,47.876 L30.977,47.778 L30.956,45.278 L19.955,45.374 L20.132,41.649 C22.225,41.682 24.697,41.715 27.629,41.748 L27.656,39.248 C25.478,39.223 22.842,39.188 20.25,39.147 L20.391,36.199 C22.101,36.248 23.812,36.298 25.317,36.342 L25.39,33.843 C25.17,33.837 23.065,33.775 20.509,33.701 L20.724,29.17 L25.48,29.482 L25.644,26.987 L20.842,26.672 L21.192,19.32 L26.547,19.065 L41.324,3.078 L2.25,4.54747351e-13 L12.127,19.752 L18.683,19.44 L18.348,26.509 L12.963,26.156 L12.799,28.651 L18.229,29.007 L18.01,33.63 C14.464,33.528 10.912,33.429 10.596,33.429 L10.596,35.929 C10.864,35.929 14.113,36.019 17.891,36.127 L17.75,39.105 C13.428,39.028 9.719,38.939 9.186,38.86 L8.933,40.082 L8.537,41.268 C8.708,41.325 9.105,41.455 17.632,41.607 L17.452,45.396 L7.467,45.483 L7.488,47.983 L17.333,47.897 L17.154,51.674 L5.129,50.277 L4.84,52.76 L17.035,54.177 L16.82,58.701 L5.183,58.789 L5.201,61.289 L16.701,61.202 L16.46,66.292 L0.143,64.634 L0.343,66.196 C0.4,66.637 1.768,77.103 5.086,84.283 C8.443,91.558 17.336,98.623 17.713,98.92 L18.305,99.387 L18.994,99.081 C19.285,98.951 21.942,97.618 25.848,90.642 C29.667,83.822 34.716,70.316 34.929,69.745 L35.493,68.228 L18.95,66.545 L19.205,61.184 Z M21.592,16.799 L16.778,17.028 L14.309,3.458 L22.894,4.135 L21.592,16.799 Z M23.892,4.213 L29.207,4.631 L24.173,16.676 L22.602,16.751 L23.892,4.213 Z M25.406,16.618 L25.279,16.624 L30.256,4.715 L35.99,5.167 L25.406,16.618 Z M6.465,2.84 L13.277,3.377 L15.769,17.077 L13.634,17.179 L6.465,2.84 Z M23.667,89.419 C21.254,93.73 19.436,95.617 18.547,96.369 C18.207,96.083 17.751,95.689 17.229,95.223 L23.135,74.528 L22.172,74.255 L16.402,94.476 C13.552,91.85 9.326,87.505 7.355,83.235 C4.931,77.991 3.564,70.626 3.054,67.443 L32.01,70.386 C30.561,74.164 26.658,84.079 23.667,89.419 Z"></path>
            </g>
        </g>
    </g>
    <g id="Group" opacity="0.1" stroke="none" stroke-width="1" fill="none" fill-rule="evenodd" transform="translate(372.000000, 566.000000)">
        <path d="M33.0001,2 C19.7671,2 9.0001,12.767 9.0001,26 C9.0001,39.233 19.7671,50 33.0001,50 C46.2331,50 57.0001,39.233 57.0001,26 C57.0001,12.767 46.2331,2 33.0001,2 M33.0001,52 C18.6631,52 7.0001,40.336 7.0001,26 C7.0001,11.664 18.6631,0 33.0001,0 C47.3371,0 59.0001,11.664 59.0001,26 C59.0001,40.336 47.3371,52 33.0001,52" id="Shape" fill="#000000"></path>
        <path d="M39.6143,21.3472 C30.1043,21.3472 22.3893,18.8472 17.9183,15.4612 C15.2743,13.4592 13.8183,11.1492 13.8183,8.9542 C13.8183,8.4022 14.2653,7.9542 14.8183,7.9542 C15.3713,7.9542 15.8183,8.4022 15.8183,8.9542 C15.8183,10.5082 16.9933,12.2522 19.1253,13.8672 C25.5693,18.7462 39.3023,21.6312 55.4563,17.0832 C55.9893,16.9332 56.5403,17.2432 56.6903,17.7742 C56.8403,18.3062 56.5303,18.8582 55.9993,19.0082 C50.1793,20.6462 44.6443,21.3472 39.6143,21.3472" id="Shape" fill="#000000"></path>
        <path d="M40.209,32.7012 C28.403,32.7012 17.862,29.4392 12.073,25.0742 C9.498,23.1322 8.137,21.0952 8.137,19.1812 C8.137,18.6292 8.584,18.1812 9.137,18.1812 C9.689,18.1812 10.137,18.6292 10.137,19.1812 C10.137,20.4252 11.252,21.9502 13.277,23.4772 C24.791,32.1582 45.534,31.6102 56.588,28.4482 C57.115,28.2982 57.673,28.6022 57.824,29.1342 C57.977,29.6652 57.669,30.2192 57.139,30.3702 C51.456,31.9962 45.695,32.7012 40.209,32.7012" id="Shape" fill="#000000"></path>
        <path d="M44.8946,43.0635 C24.7026,43.0635 13.0656,39.2875 7.5816,31.1025 C7.2746,30.6435 7.3976,30.0215 7.8566,29.7145 C8.3146,29.4055 8.9356,29.5295 9.2446,29.9885 C14.9396,38.4925 28.2116,41.8545 52.2796,40.9105 C52.7906,40.8895 53.2956,41.3175 53.3176,41.8695 C53.3396,42.4215 52.9096,42.8865 52.3576,42.9085 C49.7496,43.0115 47.2626,43.0635 44.8946,43.0635" id="Shape" fill="#000000"></path>
        <path d="M18.4874,15.6362 C17.9344,15.6362 17.4874,15.1882 17.4874,14.6362 C17.4874,14.0842 17.9344,13.6362 18.4874,13.6362 C24.6664,13.6362 29.7734,9.7652 35.5664,0.6932 C35.8634,0.2262 36.4804,0.0902 36.9474,0.3882 C37.4134,0.6852 37.5494,1.3032 37.2524,1.7692 C32.8744,8.6262 27.2204,15.6362 18.4874,15.6362" id="Shape" fill="#000000"></path>
        <path d="M28.9659,20.1816 C28.4129,20.1816 27.9659,19.7336 27.9659,19.1816 C27.9659,18.6296 28.4129,18.1816 28.9659,18.1816 C36.5379,18.1816 41.8979,11.3856 46.1429,4.7376 C46.4399,4.2716 47.0569,4.1356 47.5239,4.4326 C47.9889,4.7306 48.1249,5.3486 47.8279,5.8136 C43.2919,12.9186 37.5029,20.1816 28.9659,20.1816" id="Shape" fill="#000000"></path>
        <path d="M7.0001,48 C6.4471,48 6.0001,47.552 6.0001,47 C6.0001,46.448 6.4471,46 7.0001,46 C9.7571,46 12.0001,43.757 12.0001,41 C12.0001,40.448 12.4471,40 13.0001,40 C13.5531,40 14.0001,40.448 14.0001,41 C14.0001,44.86 10.8591,48 7.0001,48" id="Shape" fill="#000000"></path>
        <path d="M7.0001,60 C6.4471,60 6.0001,59.552 6.0001,59 C6.0001,58.448 6.4471,58 7.0001,58 C9.7571,58 12.0001,55.757 12.0001,53 C12.0001,52.448 12.4471,52 13.0001,52 C13.5531,52 14.0001,52.448 14.0001,53 C14.0001,56.86 10.8591,60 7.0001,60" id="Shape" fill="#000000"></path>
        <path d="M7.0001,60 C3.1411,60 0.0001,56.86 0.0001,53 C0.0001,52.448 0.4471,52 1.0001,52 C1.5531,52 2.0001,52.448 2.0001,53 C2.0001,55.757 4.2431,58 7.0001,58 C7.5531,58 8.0001,58.448 8.0001,59 C8.0001,59.552 7.5531,60 7.0001,60" id="Shape" fill="#000000"></path>
        <path d="M1.0001,54 C0.4471,54 0.0001,53.552 0.0001,53 C0.0001,49.14 3.1411,46 7.0001,46 C7.5531,46 8.0001,46.448 8.0001,47 C8.0001,47.552 7.5531,48 7.0001,48 C4.2431,48 2.0001,50.243 2.0001,53 C2.0001,53.552 1.5531,54 1.0001,54" id="Shape" fill="#000000"></path>
    </g>
    <path d="M401.913089,797.483736 C406.56627,783.175563 398.278232,764.688477 381.957961,753.220336 C381.485338,752.88868 380.839465,752.934808 380.422239,753.33594 C380.003836,753.735309 379.933111,754.372343 380.251341,754.852876 C387.305351,765.480816 389.118058,776.248305 385.326454,784.640512 C374.024693,777.077416 353.583967,759.422399 353.370647,759.238484 C352.918059,758.844946 352.239177,758.844946 351.784235,759.238484 C351.329293,759.631455 351.237358,760.296501 351.568562,760.796287 C351.886792,761.275087 357.598365,769.859996 363.748375,777.324409 C359.314398,774.186591 354.420803,770.214402 345.716716,763.003979 C345.264128,762.627958 344.602927,762.633788 344.155046,763.01507 C343.707164,763.39692 343.604638,764.043879 343.912247,764.543695 C352.534988,778.56637 366.886984,791.570131 373.961029,797.531628 C357.656085,804.769495 339.062251,792.859356 338.870143,792.734395 C338.389253,792.422589 337.75753,792.486834 337.353278,792.887368 C336.949026,793.287902 336.884185,793.916177 337.197708,794.390283 C340.753604,799.748049 345.641315,803.730163 351.885615,808.061452 C360.197217,813.827943 368.468719,816 375.512139,816 C382.792443,816 388.759759,813.678468 392.098774,810.603699 C392.112925,810.586181 393.608578,809.05639 396.921675,810.017487 C399.562949,810.782382 403.201336,813.663281 404.474226,814.964195 C404.780658,815.277167 405.23916,815.400933 405.663447,815.284162 C406.08894,815.166226 406.416584,814.827575 406.516756,814.401331 C406.83734,813.029207 407,811.613854 407,810.19617 C407,805.421118 405.199061,800.935691 401.913089,797.483736 Z" id="Shape" stroke="#000000" stroke-width="2.79999995" fill="none" opacity="0.100000001"></path>
    <g id="droplet" stroke="none" stroke-width="1" fill="none" fill-rule="evenodd" transform="translate(506.199594, 421.023367) rotate(-334.000000) translate(-506.199594, -421.023367) translate(489.199594, 397.023367)" fill-opacity="0" opacity="0.1">
        <path d="M17.8,0.9 C17.4,0.4 16.6,0.4 16.2,0.9 C12.8,5.3 0.1,22.5 0.1,30.6 C0.1,39.9 7.7,47.5 17,47.5 C26.3,47.5 33.9,39.9 33.9,30.6 C33.9,22.5 21.2,5.3 17.8,0.9 Z" id="Shape" stroke="#000000" stroke-width="3" fill="#FFFFFF"></path>
    </g>
    <path d="M985.866657,397.503053 C984.651218,389.707746 977.91566,383.769327 969.997432,383.769327 C964.733508,383.769327 959.940269,386.334604 956.919545,390.639204 C955.587925,390.283502 954.199703,390.093593 952.775732,390.093593 C944.860483,390.093593 938.121946,396.028998 936.906507,403.824304 C931.308933,404.261396 926.888071,409.012132 926.888071,414.781743 C926.888071,420.84074 931.758765,425.769327 937.74659,425.769327 L966.747324,425.769327 C971.534605,425.769327 975.743956,423.240223 978.171855,419.445061 L985.026574,419.445061 C991.017378,419.445061 995.888071,414.516474 995.888071,408.457477 C995.882113,402.684851 991.464231,397.940144 985.866657,397.503053 Z M966.747324,422.996055 L937.74659,422.996055 C933.269127,422.996055 929.625788,419.309412 929.625788,414.781743 C929.625788,410.25709 933.263169,406.567432 937.752548,406.567432 L937.761485,406.567432 C937.80617,406.57949 938.01768,406.600591 938.065345,406.600591 C938.762435,406.669923 939.432714,406.070052 939.489315,405.322474 C940.016601,398.335034 945.852496,392.863851 952.775732,392.863851 C957.828146,392.863851 962.389021,395.706455 964.679886,400.279339 C964.924165,400.776719 965.445493,401.087205 965.990653,401.03596 C966.145562,401.026917 966.288555,401.005816 966.437506,400.984715 C966.535813,400.969643 966.6371,400.951556 966.747324,400.951556 C972.753023,400.951556 977.632653,405.895215 977.632653,411.972298 C977.632653,418.049381 972.753023,422.996055 966.747324,422.996055 Z M985.026574,416.671789 L979.506455,416.671789 C980.039699,415.200749 980.373349,413.627218 980.373349,411.972298 C980.373349,404.369915 974.257426,398.178284 966.747324,398.178284 L966.669869,398.178284 C964.992682,395.254291 962.493287,393.014572 959.570871,391.636979 C962.088141,388.420586 965.877451,386.53657 969.997432,386.53657 C976.920668,386.53657 982.756563,392.007754 983.283849,398.995194 C983.343429,399.739757 983.980939,400.351685 984.710798,400.27331 L985.026574,400.240152 C989.507016,400.240152 993.147375,403.92378 993.147375,408.454463 C993.147375,412.985145 989.507016,416.671789 985.026574,416.671789 Z" id="Shape" stroke="none" fill="#000000" fill-rule="evenodd" opacity="0.1" transform="translate(961.388071, 404.769327) rotate(-31.000000) translate(-961.388071, -404.769327) "></path>
    <g id="noun_992982_cc" stroke="none" stroke-width="1" fill="none" fill-rule="evenodd" transform="translate(982.000000, 615.000000)" opacity="0.1">
        <g id="Group" fill="#000000">
            <path d="M24,0.51 C12.687,0.51 0.662,4.184 0.662,10.992 L0.662,47.009 C0.662,53.817 12.686,57.491 24,57.491 C35.314,57.491 47.338,53.817 47.338,47.009 L47.338,10.992 C47.338,4.184 35.313,0.51 24,0.51 Z M43.338,35.002 C43.338,37.645 35.805,41.484 24,41.484 C12.195,41.484 4.662,37.645 4.662,35.002 L4.662,29.048 C9.136,31.952 16.713,33.478 24,33.478 C31.287,33.478 38.864,31.952 43.338,29.048 L43.338,35.002 Z M43.338,22.998 C43.338,25.641 35.805,29.479 24,29.479 C12.195,29.479 4.662,25.64 4.662,22.998 L4.662,17.044 C9.136,19.948 16.713,21.475 24,21.475 C31.287,21.475 38.864,19.949 43.338,17.044 L43.338,22.998 Z M24,4.51 C35.805,4.51 43.338,8.349 43.338,10.992 C43.338,13.635 35.805,17.474 24,17.474 C12.195,17.474 4.662,13.635 4.662,10.992 C4.662,8.349 12.195,4.51 24,4.51 Z M24,53.49 C12.195,53.49 4.662,49.651 4.662,47.008 L4.662,41.054 C9.136,43.958 16.713,45.485 24,45.485 C31.287,45.485 38.864,43.959 43.338,41.054 L43.338,47.008 C43.338,49.651 35.805,53.49 24,53.49 Z" id="Shape"></path>
        </g>
    </g>
    <g id="noun_824422_cc" stroke="none" stroke-width="1" fill="none" fill-rule="evenodd" transform="translate(576.929630, 647.956327) rotate(-23.000000) translate(-576.929630, -647.956327) translate(540.429630, 618.956327)" opacity="0.1">
        <g id="Group" fill="#000000">
            <path d="M72.2760331,10.7541667 C72.0950413,10.33125 71.6727273,10.0291667 71.1900826,10.0291667 L32.638843,10.0291667 L25.9421488,0.90625 C25.7008264,0.604166667 25.338843,0.422916667 24.9768595,0.422916667 L11.3421488,0.422916667 L11.2818182,0.422916667 L11.161157,0.422916667 L11.0404959,0.422916667 C10.9801653,0.422916667 10.9801653,0.422916667 10.9198347,0.483333333 C10.8595041,0.483333333 10.8595041,0.483333333 10.7991736,0.54375 C10.738843,0.54375 10.738843,0.604166667 10.6785124,0.604166667 C10.6181818,0.604166667 10.6181818,0.664583333 10.5578512,0.664583333 L10.4975207,0.725 C10.4371901,0.725 10.4371901,0.785416667 10.3768595,0.785416667 C10.3768595,0.785416667 10.3768595,0.785416667 10.3165289,0.845833333 L0.301652893,12.7479167 C-7.07420234e-15,13.1104167 -0.0603305785,13.59375 0.120661157,14.0166667 C0.301652893,14.4395833 0.723966942,14.7416667 1.20661157,14.7416667 L10.1355372,14.7416667 L10.1355372,32.9875 L10.1355372,32.9875 C10.1355372,33.1083333 10.1355372,33.2291667 10.1958678,33.2895833 L10.1958678,33.35 C10.2561983,33.4708333 10.2561983,33.53125 10.3768595,33.6520833 L10.3768595,33.6520833 L27.1487603,56.8520833 C27.2090909,56.9729167 27.3297521,57.1541667 27.4504132,57.275 C27.6917355,57.5166667 27.9933884,57.6375 28.2950413,57.6375 L28.2950413,57.6375 L28.2950413,57.6375 L65.2173554,57.6375 C65.7603306,57.6375 66.1826446,57.3354167 66.3636364,56.8520833 C66.5446281,56.36875 66.3636364,55.825 66.0016529,55.5229167 L45.9115702,39.5729167 L72.0347107,12.0833333 C72.3966942,11.7208333 72.5173554,11.1770833 72.2760331,10.7541667 Z M12.5487603,2.77916667 L24.3735537,2.77916667 L30.4669421,11.1166667 L12.5487603,30.0270833 L12.5487603,2.77916667 Z M3.80082645,12.325 L10.1355372,4.89375 L10.1355372,12.325 L3.80082645,12.325 L3.80082645,12.325 Z M61.7181818,55.2208333 L31.0702479,55.2208333 L44.2826446,41.325 L61.7181818,55.2208333 Z M28.3553719,54.4958333 L12.9107438,33.16875 L32.5785124,12.4458333 L68.3545455,12.4458333 L28.3553719,54.4958333 Z" id="Shape"></path>
        </g>
    </g>
    <g id="noun_750644_cc" stroke="none" stroke-width="1" fill="none" fill-rule="evenodd" transform="translate(1097.000000, 753.000000)" opacity="0.1">
        <g id="Artboard-11" fill="#000000">
            <path d="M19.4227148,18.1607928 L16.324457,18.0049805 C13.8257603,17.8797027 11.3903688,18.8155575 9.61855663,20.5818759 L4.98015907,25.2202876 C4.58305015,25.6166687 4.4103361,26.1853009 4.51991009,26.7355807 C4.62948407,27.2858605 5.0068441,27.7449591 5.52550039,27.9589881 L12.4711112,30.8355225 C11.9079007,32.4395972 11.443589,34.0767011 11.0807905,35.7376165 C10.9939341,36.1362962 11.1158683,36.5517768 11.4043996,36.840288 L20.1538317,45.5897469 C20.4423421,45.8782791 20.8578214,46.0002136 21.2564999,45.913357 C22.9173191,45.5501938 24.5543959,45.085887 26.1585789,44.523032 L29.0410973,51.4746568 C29.2551257,51.9933147 29.7142228,52.3706759 30.264501,52.4802502 C30.8147791,52.5898245 31.3834096,52.4171099 31.7797894,52.0199998 L36.418187,47.3815881 C38.1857861,45.6106049 39.1218658,43.1746132 38.9950745,40.6756673 L38.8392627,37.5774 C49.0029866,29.5890242 55.103618,17.7113342 56.9853452,2.2559546 C57.0598219,1.64169713 56.8477494,1.02730425 56.4102242,0.589777647 C55.9726989,0.152251041 55.3583079,-0.0598220704 54.7440523,0.0146548784 C39.2887198,1.8963878 27.4110661,8.00303063 19.4227148,18.1607928 Z M54.5462912,2.45371634 C52.6465857,17.255883 46.7017661,28.5642588 36.8916152,36.0612266 C36.5786339,36.3013285 36.4038347,36.6800612 36.4241797,37.0740065 L36.6159481,40.7955229 C36.7075657,42.6181761 36.0240118,44.3945511 34.7342209,45.6856313 L30.8569041,49.56296 L27.9324364,42.5454146 C27.6834169,41.9470076 27.0037918,41.6549803 26.3982894,41.8862088 C24.7618826,42.5106173 23.086311,43.0271033 21.3823479,43.4323461 L13.5917576,35.641732 C13.9971812,33.9378134 14.513662,32.2622485 15.1378902,30.6257752 C15.369118,30.0202709 15.0770916,29.3406437 14.4786864,29.0916235 L7.46715518,26.1791324 L11.344472,22.3018037 C12.635966,21.0126521 14.4120391,20.3292102 16.2345656,20.4200708 L19.9560706,20.6118398 C20.3460634,20.6139353 20.71269,20.4261504 20.9388835,20.1084463 C28.4358284,10.2982654 39.7441697,4.35342761 54.5462912,2.45371634 Z M39.3905968,23.5542948 C42.2276613,23.5568682 44.6711868,21.5543559 45.2260184,18.7720636 C45.7808501,15.9897713 44.2923515,13.2031484 41.6713115,12.1172856 C39.0502715,11.0314229 36.027197,11.9489598 34.4518599,14.30847 C32.8765227,16.6679802 33.1879832,19.8118473 35.1956636,21.8163886 C36.3078249,22.9295989 37.8170237,23.5548403 39.3905968,23.5542948 L39.3905968,23.5542948 Z M36.8916152,15.0984822 C38.0898866,13.9036761 39.9651937,13.7214607 41.3710659,14.6632335 C42.776938,15.6050063 43.3219969,17.4085888 42.6730203,18.9713592 C42.0240436,20.5341296 40.3616989,21.421031 38.7022621,21.0898554 C37.0428253,20.7586798 35.8482641,19.3016225 35.8488746,17.609457 C35.847222,16.6668065 36.2226906,15.7626582 36.8916152,15.0984822 Z M1.64818356,57 L1.64818356,57 C11.2366023,56.8322022 15.9109564,51.7623103 17.48106,49.5869311 C17.8441433,49.0799726 17.8537104,48.4006985 17.5050485,47.8837155 C17.1563866,47.3667325 16.523023,47.1210641 15.9169492,47.2677253 C14.6600825,47.594533 13.353272,47.6839573 12.0636034,47.5314076 C10.6953748,47.3650593 9.61710708,46.2867883 9.45075931,44.9185555 C9.30688046,43.633674 9.40237974,42.3332543 9.73241911,41.0831763 C9.88604328,40.475153 9.64310341,39.8359564 9.12441433,39.4834612 C8.60572525,39.130966 7.92198516,39.1404014 7.41322032,39.5070751 C5.24384059,41.0831763 0.167971421,45.7515519 0.000174093211,55.3220216 C-0.00623177868,55.763793 0.164373249,56.189765 0.473957614,56.5049791 C0.783541979,56.8201932 1.20636979,56.9984457 1.64818356,57 L1.64818356,57 Z M7.0416691,43.0188442 C7.0023788,43.7486739 7.02643995,44.480536 7.11358224,45.2062089 C7.41261341,47.669885 9.35423167,49.6115092 11.8179002,49.9105412 C12.5435914,49.9974147 13.275428,50.0214751 14.0052582,49.9824546 C11.9677192,51.9301081 8.3241201,54.2792779 2.44522087,54.5729241 C2.73287343,48.6999997 5.07604326,45.0503967 7.01769805,43.0128515 L7.0416691,43.0188442 Z" id="Shape"></path>
        </g>
    </g>
    <g id="noun_721997_cc" stroke="none" stroke-width="1" fill="none" fill-rule="evenodd" transform="translate(1134.000000, 512.000000)" opacity="0.1">
        <g id="Group" fill="#000000">
            <g transform="translate(32.507997, 34.127065) rotate(-34.000000) translate(-32.507997, -34.127065) translate(11.507997, 7.127065)" id="Shape">
                <path d="M21,35.3514 L20.9976,35.3514 C18.6342,35.3526 16.7118,37.2762 16.713,39.6402 C16.7136,41.1366 17.5128,42.5154 18.7656,43.284 L18.7692,49.6842 L23.241,49.6818 L23.238,43.2816 C24.4896,42.5118 25.2876,41.1324 25.287,39.6354 C25.2852,37.2732 23.3622,35.3514 21,35.3514 Z M21.6882,41.493 L21.0012,41.7486 L20.3142,41.4936 C19.5354,41.205 19.0122,40.4598 19.0116,39.6384 C19.011,38.5422 19.9026,37.6494 20.9994,37.6488 L21,36.4998 L21,37.6488 C22.0962,37.6488 22.9878,38.5404 22.989,39.6366 C22.989,40.4574 22.4664,41.2038 21.6882,41.493 Z"></path>
                <path d="M41.8728,31.2198 C41.8716,27.942 39.2034,25.2756 35.9226,25.2756 L35.6544,25.2756 L35.6496,15.1122 C35.6454,6.7794 28.8624,0 20.5218,0 C12.1854,0.0042 5.406,6.7902 5.4102,15.1272 L5.4156,25.3254 C4.0722,25.4706 2.8272,26.0646 1.8588,27.0342 C0.7362,28.158 0.1182,29.652 0.1194,31.2402 L0.1278,48.0552 C0.1284,51.333 2.796,54 6.0738,54 L6.0774,54 L35.9376,53.985 C37.5258,53.9844 39.0192,53.3646 40.1418,52.2414 C41.2644,51.1176 41.8824,49.6236 41.8812,48.0354 L41.8728,31.2198 Z M20.5296,2.298 C27.5958,2.298 33.3474,8.0466 33.3516,15.1134 L33.357,26.2344 L30.5058,26.2344 L30.5004,15.1152 C30.4974,9.6204 26.025,5.1498 20.5302,5.1498 L20.5248,5.1498 C17.8656,5.151 15.363,6.1908 13.479,8.0766 C11.5944,9.9624 10.5576,12.4656 10.5588,15.1254 L10.5648,26.235 L7.7142,26.235 L7.7082,15.1272 C7.7046,8.0562 13.4532,2.3016 20.5296,2.298 Z M28.203,15.1158 L28.2078,25.2792 L12.8622,25.287 L12.8568,15.1236 C12.8544,10.893 16.2948,7.449 20.526,7.4466 L20.5302,6.2976 L20.5302,7.4466 C24.7584,7.4466 28.2006,10.887 28.203,15.1158 Z M38.5158,50.6166 C37.827,51.306 36.9108,51.6864 35.9358,51.687 L6.0762,51.702 L6.0744,52.851 L6.0744,51.702 C4.0632,51.702 2.4264,50.0658 2.4252,48.0546 L2.4168,31.2396 C2.4162,30.2646 2.7954,29.3484 3.4842,28.659 C4.173,27.969 5.0892,27.5892 6.0642,27.5886 L35.9256,27.5736 C37.9368,27.5736 39.5742,29.2098 39.5754,31.221 L39.5838,48.036 C39.5838,49.011 39.2046,49.9272 38.5158,50.6166 Z"></path>
            </g>
        </g>
    </g>
    <g id="noun_541072_cc" stroke="none" stroke-width="1" fill="none" fill-rule="evenodd" transform="translate(351.000000, 278.000000)" opacity="0.1">
        <g id="Group" fill="#000000">
            <g transform="translate(27.802559, 26.155445) rotate(30.000000) translate(-27.802559, -26.155445) translate(5.802559, 8.655445)" id="Shape">
                <path d="M29.5,0.183714493 C29.1373875,0.183714493 28.8159595,0.382041232 28.640625,0.67510942 C28.5505285,0.825703261 13.749547,32.8951112 13.59375,33.2498377 C13.5383995,33.3758605 13.5,33.5151022 13.5,33.6619754 C13.5,34.222264 13.9477155,34.6764681 14.5,34.6764681 C14.850921,34.6764681 15.1652925,34.4942267 15.34375,34.2167761 C15.4461515,34.0575717 30.320132,1.82528196 30.40625,1.64204783 C30.468339,1.50994109 30.5,1.35431333 30.5,1.19820725 C30.5,0.637918623 30.0522845,0.183714493 29.5,0.183714493 Z M10.9375,5.24032681 C10.6804975,5.26280797 10.433964,5.39076949 10.265625,5.5890587 C10.265625,5.5890587 0.30855935,16.6902009 0.234375,16.7801819 C0.0891865,16.9562857 0,17.1825536 0,17.4300913 C0,17.6591628 0.0769003,17.8626304 0.203125,18.0324464 C0.28297295,18.1398695 10.265625,29.2711239 10.265625,29.2711239 C10.5993105,29.7224996 11.3240425,29.7946387 11.734375,29.413787 C12.144708,29.0329357 12.1479465,28.2851293 11.734375,27.9078993 L2.34375,17.4300913 L11.734375,6.95228333 C12.011015,6.65788109 12.093074,6.19462362 11.921875,5.82683043 C11.750676,5.45903674 11.3373595,5.21064123 10.9375,5.24032681 Z M32.9375,5.24032681 C32.5584435,5.26080942 32.2029145,5.51660464 32.0625,5.87438478 C31.9220855,6.23216493 32.0041805,6.67308833 32.265625,6.95228333 L41.65625,17.4300913 L32.265625,27.9078993 C31.8520545,28.2851293 31.855293,29.0329357 32.265625,29.413787 C32.6759575,29.7946387 33.4006895,29.7224996 33.734375,29.2711239 C33.734375,29.2711239 43.681369,18.1888609 43.75,18.1117036 C43.909975,17.9318554 44,17.6914165 44,17.4300913 C44,17.1600075 43.888382,16.9144175 43.71875,16.7326275 C43.6528115,16.661963 33.734375,5.5890587 33.734375,5.5890587 C33.5382545,5.35978587 33.2364715,5.2277192 32.9375,5.24032681 Z"></path>
            </g>
        </g>
    </g>
    <g id="Group-Copy" stroke="none" stroke-width="1" fill="none" fill-rule="evenodd" transform="translate(720.000000, 494.888900) rotate(140.000000) translate(-720.000000, -494.888900) translate(642.000000, 416.888900)">
        <path d="M78.0003,6 C38.3013,6 6.0003,38.301 6.0003,78 C6.0003,117.699 38.3013,150 78.0003,150 C117.6993,150 150.0003,117.699 150.0003,78 C150.0003,38.301 117.6993,6 78.0003,6 M78.0003,156 C34.9893,156 0.000299999998,121.008 0.000299999998,78 C0.000299999998,34.992 34.9893,1.70530257e-12 78.0003,1.70530257e-12 C121.0113,1.70530257e-12 156.0003,34.992 156.0003,78 C156.0003,121.008 121.0113,156 78.0003,156" id="Shape" fill="url(#linearGradient-1)"></path>
        <path d="M97.8429,64.0416 C69.3129,64.0416 46.1679,56.5416 32.7549,46.3836 C24.8229,40.3776 20.4549,33.4476 20.4549,26.8626 C20.4549,25.2066 21.7959,23.8626 23.4549,23.8626 C25.1139,23.8626 26.4549,25.2066 26.4549,26.8626 C26.4549,31.5246 29.9799,36.7566 36.3759,41.6016 C55.7079,56.2386 96.9069,64.8936 145.3689,51.2496 C146.9679,50.7996 148.6209,51.7296 149.0709,53.3226 C149.5209,54.9186 148.5909,56.5746 146.9979,57.0246 C129.5379,61.9386 112.9329,64.0416 97.8429,64.0416" id="Shape" fill="url(#linearGradient-1)"></path>
        <path d="M99.627,98.1036 C64.209,98.1036 32.586,88.3176 15.219,75.2226 C7.494,69.3966 3.411,63.2856 3.411,57.5436 C3.411,55.8876 4.752,54.5436 6.411,54.5436 C8.067,54.5436 9.411,55.8876 9.411,57.5436 C9.411,61.2756 12.756,65.8506 18.831,70.4316 C53.373,96.4746 115.602,94.8306 148.764,85.3446 C150.345,84.8946 152.019,85.8066 152.472,87.4026 C152.931,88.9956 152.007,90.6576 150.417,91.1106 C133.368,95.9886 116.085,98.1036 99.627,98.1036" id="Shape" fill="url(#linearGradient-1)"></path>
        <path d="M113.6838,129.1905 C53.1078,129.1905 18.1968,117.8625 1.7448,93.3075 C0.8238,91.9305 1.1928,90.0645 2.5698,89.1435 C3.9438,88.2165 5.8068,88.5885 6.7338,89.9655 C23.8188,115.4775 63.6348,125.5635 135.8388,122.7315 C137.3718,122.6685 138.8868,123.9525 138.9528,125.6085 C139.0188,127.2645 137.7288,128.6595 136.0728,128.7255 C128.2488,129.0345 120.7878,129.1905 113.6838,129.1905" id="Shape" fill="url(#linearGradient-1)"></path>
        <path d="M34.4622,46.9086 C32.8032,46.9086 31.4622,45.5646 31.4622,43.9086 C31.4622,42.2526 32.8032,40.9086 34.4622,40.9086 C52.9992,40.9086 68.3202,29.2956 85.6992,2.0796 C86.5902,0.6786 88.4412,0.2706 89.8422,1.1646 C91.2402,2.0556 91.6482,3.9096 90.7572,5.3076 C77.6232,25.8786 60.6612,46.9086 34.4622,46.9086" id="Shape" fill="url(#linearGradient-1)"></path>
        <path d="M65.8977,60.5448 C64.2387,60.5448 62.8977,59.2008 62.8977,57.5448 C62.8977,55.8888 64.2387,54.5448 65.8977,54.5448 C88.6137,54.5448 104.6937,34.1568 117.4287,14.2128 C118.3197,12.8148 120.1707,12.4068 121.5717,13.2978 C122.9667,14.1918 123.3747,16.0458 122.4837,17.4408 C108.8757,38.7558 91.5087,60.5448 65.8977,60.5448" id="Shape" fill="url(#linearGradient-1)"></path>
    </g>
    <path d="M756.29522,427.288639 C756.29522,427.288639 759.965854,432.893722 760.758196,431.577656 C761.550539,430.26159 762.455582,413.962224 756.29522,398.295374 C746.320269,372.927375 720.127514,344.274941 727.810585,308.3151 C737.320736,263.803792 774.012451,254.119955 783.975436,291.128425 C793.93842,328.136895 748.622616,369.970767 742.28181,308.3151 C740.046235,286.577191 742.310701,223.549571 745.316469,199.125126 C748.628394,172.212887 753.718505,146.686876 757.493798,129.195861 C758.772987,123.269352 759.901226,118.265316 760.758196,114.44239 C766.439751,89.097106 766.424419,83 766.424419,83" id="Path-3" stroke="url(#linearGradient-2)" stroke-width="5" fill="none"></path>
</svg>