
<svg width="726px" height="336px" viewBox="76 359 726 336" version="1.1" xmlns="http://www.w3.org/2000/svg" xmlns:xlink="http://www.w3.org/1999/xlink">
    <!-- Generator: Sketch 42 (36781) - http://www.bohemiancoding.com/sketch -->
    <desc>Created with Sketch.</desc>
    <defs>
        <linearGradient x1="4.64410041%" y1="-8.46459634%" x2="136.017784%" y2="124.5192%" id="linearGradient-1">
            <stop stop-color="#20E2D7" offset="0%"></stop>
            <stop stop-color="#F9FEA5" offset="100%"></stop>
        </linearGradient>
    </defs>
    <g id="noun_919717_cc" stroke="none" stroke-width="1" fill="none" fill-rule="evenodd" transform="translate(638.000000, 359.000000)">
        <g id="Group" fill="url(#linearGradient-1)">
            <path d="M157.264011,3.40879121 C117.105549,-6.40417582 74.0006593,5.65351648 44.7666484,34.8857143 C16.1418681,63.5123077 3.99532967,105.436813 12.7167582,144.871813 L2.14043956,155.448132 C0.368956044,157.219615 0.368956044,160.088077 2.14043956,161.857747 C3.02527473,162.744396 4.18571429,163.186813 5.34615385,163.186813 C6.50659341,163.186813 7.66703297,162.744396 8.55186813,161.85956 L19.1245604,151.286868 C27.5522527,153.150824 36.0905495,154.073736 44.5925824,154.073736 C75.8718681,154.073736 106.605385,141.744066 129.112473,119.236978 C158.346484,90.0011538 170.407802,46.8944505 160.591209,6.73598901 C160.188681,5.09324176 158.906758,3.81131868 157.264011,3.40879121 Z M122.702857,112.825549 C97.6500549,137.876538 61.5712637,149.261538 26.8650549,143.54456 L135.474945,34.9346703 C137.246429,33.1631868 137.246429,30.2947253 135.474945,28.5250549 C133.705275,26.7535714 130.833187,26.7535714 129.06533,28.5250549 L20.4554396,137.134945 C14.7366484,102.428736 26.1252747,66.3499451 51.1762637,41.2953297 C77.5291209,14.9442857 116.079286,3.69708791 152.408297,11.5917033 C160.304725,47.9152747 149.055714,86.4690659 122.702857,112.825549 Z" id="Shape"></path>
        </g>
    </g>
    <path d="M77,400.116605 C77,400.116605 363.612587,540.074182 363.612587,659.049134 C363.612587,698.253384 265.004963,722.82282 275.84162,631.080018 C286.678277,539.337216 622,570.50711 622,570.50711" id="Line" stroke="#979797" stroke-width="1" stroke-linecap="square" stroke-dasharray="19,18,24" fill="none" transform="translate(349.500000, 547.147314) scale(1, -1) translate(-349.500000, -547.147314) "></path>
</svg>