
<svg width="222px" height="489px" viewBox="601 78 222 489" version="1.1" xmlns="http://www.w3.org/2000/svg" xmlns:xlink="http://www.w3.org/1999/xlink">
    <!-- Generator: Sketch 42 (36781) - http://www.bohemiancoding.com/sketch -->
    <desc>Created with Sketch.</desc>
    <defs>
        <linearGradient x1="60.523831%" y1="281.309705%" x2="77.4232567%" y2="-207.52985%" id="linearGradient-1">
            <stop stop-color="#1FE2D8" offset="0%"></stop>
            <stop stop-color="#F9FEA5" offset="100%"></stop>
        </linearGradient>
        <linearGradient x1="-490.766103%" y1="61.9140829%" x2="378.401203%" y2="228.280792%" id="linearGradient-2">
            <stop stop-color="#20E2D7" offset="0%"></stop>
            <stop stop-color="#F9FEA5" offset="100%"></stop>
        </linearGradient>
    </defs>
    <g id="Group-Copy" stroke="none" stroke-width="1" fill="none" fill-rule="evenodd" transform="translate(712.888900, 456.111100) rotate(140.000000) translate(-712.888900, -456.111100) translate(634.888900, 378.111100)">
        <path d="M78.0003,6 C38.3013,6 6.0003,38.301 6.0003,78 C6.0003,117.699 38.3013,150 78.0003,150 C117.6993,150 150.0003,117.699 150.0003,78 C150.0003,38.301 117.6993,6 78.0003,6 M78.0003,156 C34.9893,156 0.000299999998,121.008 0.000299999998,78 C0.000299999998,34.992 34.9893,1.70530257e-12 78.0003,1.70530257e-12 C121.0113,1.70530257e-12 156.0003,34.992 156.0003,78 C156.0003,121.008 121.0113,156 78.0003,156" id="Shape" fill="url(#linearGradient-1)"></path>
        <path d="M97.8429,64.0416 C69.3129,64.0416 46.1679,56.5416 32.7549,46.3836 C24.8229,40.3776 20.4549,33.4476 20.4549,26.8626 C20.4549,25.2066 21.7959,23.8626 23.4549,23.8626 C25.1139,23.8626 26.4549,25.2066 26.4549,26.8626 C26.4549,31.5246 29.9799,36.7566 36.3759,41.6016 C55.7079,56.2386 96.9069,64.8936 145.3689,51.2496 C146.9679,50.7996 148.6209,51.7296 149.0709,53.3226 C149.5209,54.9186 148.5909,56.5746 146.9979,57.0246 C129.5379,61.9386 112.9329,64.0416 97.8429,64.0416" id="Shape" fill="url(#linearGradient-1)"></path>
        <path d="M99.627,98.1036 C64.209,98.1036 32.586,88.3176 15.219,75.2226 C7.494,69.3966 3.411,63.2856 3.411,57.5436 C3.411,55.8876 4.752,54.5436 6.411,54.5436 C8.067,54.5436 9.411,55.8876 9.411,57.5436 C9.411,61.2756 12.756,65.8506 18.831,70.4316 C53.373,96.4746 115.602,94.8306 148.764,85.3446 C150.345,84.8946 152.019,85.8066 152.472,87.4026 C152.931,88.9956 152.007,90.6576 150.417,91.1106 C133.368,95.9886 116.085,98.1036 99.627,98.1036" id="Shape" fill="url(#linearGradient-1)"></path>
        <path d="M113.6838,129.1905 C53.1078,129.1905 18.1968,117.8625 1.7448,93.3075 C0.8238,91.9305 1.1928,90.0645 2.5698,89.1435 C3.9438,88.2165 5.8068,88.5885 6.7338,89.9655 C23.8188,115.4775 63.6348,125.5635 135.8388,122.7315 C137.3718,122.6685 138.8868,123.9525 138.9528,125.6085 C139.0188,127.2645 137.7288,128.6595 136.0728,128.7255 C128.2488,129.0345 120.7878,129.1905 113.6838,129.1905" id="Shape" fill="url(#linearGradient-1)"></path>
        <path d="M34.4622,46.9086 C32.8032,46.9086 31.4622,45.5646 31.4622,43.9086 C31.4622,42.2526 32.8032,40.9086 34.4622,40.9086 C52.9992,40.9086 68.3202,29.2956 85.6992,2.0796 C86.5902,0.6786 88.4412,0.2706 89.8422,1.1646 C91.2402,2.0556 91.6482,3.9096 90.7572,5.3076 C77.6232,25.8786 60.6612,46.9086 34.4622,46.9086" id="Shape" fill="url(#linearGradient-1)"></path>
        <path d="M65.8977,60.5448 C64.2387,60.5448 62.8977,59.2008 62.8977,57.5448 C62.8977,55.8888 64.2387,54.5448 65.8977,54.5448 C88.6137,54.5448 104.6937,34.1568 117.4287,14.2128 C118.3197,12.8148 120.1707,12.4068 121.5717,13.2978 C122.9667,14.1918 123.3747,16.0458 122.4837,17.4408 C108.8757,38.7558 91.5087,60.5448 65.8977,60.5448" id="Shape" fill="url(#linearGradient-1)"></path>
    </g>
    <path d="M749.18412,389.167233 C749.18412,389.167233 752.854754,394.184252 753.647096,393.006263 C754.439439,391.828273 755.344482,377.238972 749.18412,363.215827 C739.209169,340.509338 713.739738,281.331917 721.422809,249.144841 C730.93296,209.303483 767.624675,200.635637 777.58766,233.761324 C787.550644,266.887011 742.23484,304.331838 735.894034,249.144841 C730.360538,200.984235 747.965542,131.829736 753.647096,109.143579 C759.328651,86.4574217 759.313319,81 759.313319,81" id="Path-3" stroke="url(#linearGradient-2)" stroke-width="5" fill="none"></path>
</svg>