
<svg width="736px" height="461px" viewBox="335 201 736 461" version="1.1" xmlns="http://www.w3.org/2000/svg" xmlns:xlink="http://www.w3.org/1999/xlink">
    <!-- Generator: Sketch 42 (36781) - http://www.bohemiancoding.com/sketch -->
    <desc>Created with Sketch.</desc>
    <defs>
        <linearGradient x1="4.64410041%" y1="-8.46459634%" x2="136.017784%" y2="124.5192%" id="linearGradient-1">
            <stop stop-color="#20E2D7" offset="0%"></stop>
            <stop stop-color="#F9FEA5" offset="100%"></stop>
        </linearGradient>
    </defs>
    <g id="Group" stroke="none" stroke-width="1" fill="none" fill-rule="evenodd" transform="translate(552.000000, 315.000000)">
        <path d="M75.5977258,252.309811 L48.8510461,225.895389 C43.1966573,220.311245 39.0717624,210.471211 39.0717624,202.567102 L39.0717624,154.391067 C39.0717624,151.245528 37.0837802,145.646004 35.1072947,143.206088 L2.14079947,102.509871 C-1.22920173,98.3496971 -0.546218976,92.2792202 3.66628374,88.9510824 C7.87878646,85.6229446 14.0256215,86.2974431 17.3956227,90.4576166 L50.3621179,131.153834 C55.1103775,137.01543 58.6074633,146.865631 58.6074633,154.391067 L58.6074633,202.567102 C58.6074633,205.35572 60.6750974,210.288106 62.6648721,212.253163 L81.8456288,231.195649 L112.700964,137.240193 C100.443269,125.804867 92.7949398,109.602231 92.7949398,91.6312593 L92.7949398,9.6651474 C92.7949398,1.42362206 102.583479,-3.02254636 108.919624,2.34097146 L140.363629,28.9581688 L191.744007,28.9581688 L223.188012,2.34097146 C229.524158,-3.02254636 239.312696,1.42362206 239.312696,9.6651474 L239.312696,91.6312593 C239.312696,109.606972 231.667512,125.811823 219.408884,137.246941 L253.795024,241.95381 C269.153655,288.721314 240.236887,328 190.482177,328 L141.62546,328 C95.5484578,328 67.376175,294.407285 75.5977258,252.309811 Z M202.578062,148.533764 L202.578062,148.533764 C194.43864,152.274449 185.360707,154.362808 175.785059,154.362808 L156.322578,154.362808 C146.749591,154.362808 137.671546,152.272877 129.530917,148.529674 L96.8954151,247.905794 C85.617074,282.248683 105.09345,308.706979 141.62546,308.706979 L190.482177,308.706979 C226.970006,308.706979 246.477576,282.209147 235.212221,247.905794 L202.578062,148.533764 Z M112.330641,91.6312593 C112.330641,115.628252 132.022085,135.069786 156.322578,135.069786 L175.785059,135.069786 C200.103622,135.069786 219.776996,115.634489 219.776996,91.6312593 L219.776996,30.6387887 L201.714204,45.9288554 C199.943849,47.4274553 197.689068,48.2511901 195.357369,48.2511901 L136.750267,48.2511901 C134.418569,48.2511901 132.163787,47.4274553 130.393433,45.9288554 L112.330641,30.6387887 L112.330641,91.6312593 Z" id="Shape" fill="url(#linearGradient-1)"></path>
    </g>
    <g id="noun_13397_cc" opacity="0.1" stroke="none" stroke-width="1" fill="none" fill-rule="evenodd" transform="translate(925.304973, 607.530709) rotate(-32.000000) translate(-925.304973, -607.530709) translate(904.304973, 557.530709)">
        <g id="Group" fill="#000000">
            <g id="Shape">
                <path d="M11.843,72.303 C14.635,71.528 16.418,76.045 15.582,77.29 C14.752,78.539 9.557,80.619 8.726,78.954 C7.89,77.29 8.102,73.342 11.843,72.303 Z"></path>
                <path d="M19.205,61.184 L32.846,61.081 L32.827,58.581 L19.323,58.683 L19.523,54.466 L31.654,55.875 L31.943,53.393 L19.642,51.964 L19.835,47.876 L30.977,47.778 L30.956,45.278 L19.955,45.374 L20.132,41.649 C22.225,41.682 24.697,41.715 27.629,41.748 L27.656,39.248 C25.478,39.223 22.842,39.188 20.25,39.147 L20.391,36.199 C22.101,36.248 23.812,36.298 25.317,36.342 L25.39,33.843 C25.17,33.837 23.065,33.775 20.509,33.701 L20.724,29.17 L25.48,29.482 L25.644,26.987 L20.842,26.672 L21.192,19.32 L26.547,19.065 L41.324,3.078 L2.25,4.54747351e-13 L12.127,19.752 L18.683,19.44 L18.348,26.509 L12.963,26.156 L12.799,28.651 L18.229,29.007 L18.01,33.63 C14.464,33.528 10.912,33.429 10.596,33.429 L10.596,35.929 C10.864,35.929 14.113,36.019 17.891,36.127 L17.75,39.105 C13.428,39.028 9.719,38.939 9.186,38.86 L8.933,40.082 L8.537,41.268 C8.708,41.325 9.105,41.455 17.632,41.607 L17.452,45.396 L7.467,45.483 L7.488,47.983 L17.333,47.897 L17.154,51.674 L5.129,50.277 L4.84,52.76 L17.035,54.177 L16.82,58.701 L5.183,58.789 L5.201,61.289 L16.701,61.202 L16.46,66.292 L0.143,64.634 L0.343,66.196 C0.4,66.637 1.768,77.103 5.086,84.283 C8.443,91.558 17.336,98.623 17.713,98.92 L18.305,99.387 L18.994,99.081 C19.285,98.951 21.942,97.618 25.848,90.642 C29.667,83.822 34.716,70.316 34.929,69.745 L35.493,68.228 L18.95,66.545 L19.205,61.184 Z M21.592,16.799 L16.778,17.028 L14.309,3.458 L22.894,4.135 L21.592,16.799 Z M23.892,4.213 L29.207,4.631 L24.173,16.676 L22.602,16.751 L23.892,4.213 Z M25.406,16.618 L25.279,16.624 L30.256,4.715 L35.99,5.167 L25.406,16.618 Z M6.465,2.84 L13.277,3.377 L15.769,17.077 L13.634,17.179 L6.465,2.84 Z M23.667,89.419 C21.254,93.73 19.436,95.617 18.547,96.369 C18.207,96.083 17.751,95.689 17.229,95.223 L23.135,74.528 L22.172,74.255 L16.402,94.476 C13.552,91.85 9.326,87.505 7.355,83.235 C4.931,77.991 3.564,70.626 3.054,67.443 L32.01,70.386 C30.561,74.164 26.658,84.079 23.667,89.419 Z"></path>
            </g>
        </g>
    </g>
    <g id="Group" opacity="0.1" stroke="none" stroke-width="1" fill="none" fill-rule="evenodd" transform="translate(390.000000, 490.000000)">
        <path d="M33.0001,2 C19.7671,2 9.0001,12.767 9.0001,26 C9.0001,39.233 19.7671,50 33.0001,50 C46.2331,50 57.0001,39.233 57.0001,26 C57.0001,12.767 46.2331,2 33.0001,2 M33.0001,52 C18.6631,52 7.0001,40.336 7.0001,26 C7.0001,11.664 18.6631,0 33.0001,0 C47.3371,0 59.0001,11.664 59.0001,26 C59.0001,40.336 47.3371,52 33.0001,52" id="Shape" fill="#000000"></path>
        <path d="M39.6143,21.3472 C30.1043,21.3472 22.3893,18.8472 17.9183,15.4612 C15.2743,13.4592 13.8183,11.1492 13.8183,8.9542 C13.8183,8.4022 14.2653,7.9542 14.8183,7.9542 C15.3713,7.9542 15.8183,8.4022 15.8183,8.9542 C15.8183,10.5082 16.9933,12.2522 19.1253,13.8672 C25.5693,18.7462 39.3023,21.6312 55.4563,17.0832 C55.9893,16.9332 56.5403,17.2432 56.6903,17.7742 C56.8403,18.3062 56.5303,18.8582 55.9993,19.0082 C50.1793,20.6462 44.6443,21.3472 39.6143,21.3472" id="Shape" fill="#000000"></path>
        <path d="M40.209,32.7012 C28.403,32.7012 17.862,29.4392 12.073,25.0742 C9.498,23.1322 8.137,21.0952 8.137,19.1812 C8.137,18.6292 8.584,18.1812 9.137,18.1812 C9.689,18.1812 10.137,18.6292 10.137,19.1812 C10.137,20.4252 11.252,21.9502 13.277,23.4772 C24.791,32.1582 45.534,31.6102 56.588,28.4482 C57.115,28.2982 57.673,28.6022 57.824,29.1342 C57.977,29.6652 57.669,30.2192 57.139,30.3702 C51.456,31.9962 45.695,32.7012 40.209,32.7012" id="Shape" fill="#000000"></path>
        <path d="M44.8946,43.0635 C24.7026,43.0635 13.0656,39.2875 7.5816,31.1025 C7.2746,30.6435 7.3976,30.0215 7.8566,29.7145 C8.3146,29.4055 8.9356,29.5295 9.2446,29.9885 C14.9396,38.4925 28.2116,41.8545 52.2796,40.9105 C52.7906,40.8895 53.2956,41.3175 53.3176,41.8695 C53.3396,42.4215 52.9096,42.8865 52.3576,42.9085 C49.7496,43.0115 47.2626,43.0635 44.8946,43.0635" id="Shape" fill="#000000"></path>
        <path d="M18.4874,15.6362 C17.9344,15.6362 17.4874,15.1882 17.4874,14.6362 C17.4874,14.0842 17.9344,13.6362 18.4874,13.6362 C24.6664,13.6362 29.7734,9.7652 35.5664,0.6932 C35.8634,0.2262 36.4804,0.0902 36.9474,0.3882 C37.4134,0.6852 37.5494,1.3032 37.2524,1.7692 C32.8744,8.6262 27.2204,15.6362 18.4874,15.6362" id="Shape" fill="#000000"></path>
        <path d="M28.9659,20.1816 C28.4129,20.1816 27.9659,19.7336 27.9659,19.1816 C27.9659,18.6296 28.4129,18.1816 28.9659,18.1816 C36.5379,18.1816 41.8979,11.3856 46.1429,4.7376 C46.4399,4.2716 47.0569,4.1356 47.5239,4.4326 C47.9889,4.7306 48.1249,5.3486 47.8279,5.8136 C43.2919,12.9186 37.5029,20.1816 28.9659,20.1816" id="Shape" fill="#000000"></path>
        <path d="M7.0001,48 C6.4471,48 6.0001,47.552 6.0001,47 C6.0001,46.448 6.4471,46 7.0001,46 C9.7571,46 12.0001,43.757 12.0001,41 C12.0001,40.448 12.4471,40 13.0001,40 C13.5531,40 14.0001,40.448 14.0001,41 C14.0001,44.86 10.8591,48 7.0001,48" id="Shape" fill="#000000"></path>
        <path d="M7.0001,60 C6.4471,60 6.0001,59.552 6.0001,59 C6.0001,58.448 6.4471,58 7.0001,58 C9.7571,58 12.0001,55.757 12.0001,53 C12.0001,52.448 12.4471,52 13.0001,52 C13.5531,52 14.0001,52.448 14.0001,53 C14.0001,56.86 10.8591,60 7.0001,60" id="Shape" fill="#000000"></path>
        <path d="M7.0001,60 C3.1411,60 0.0001,56.86 0.0001,53 C0.0001,52.448 0.4471,52 1.0001,52 C1.5531,52 2.0001,52.448 2.0001,53 C2.0001,55.757 4.2431,58 7.0001,58 C7.5531,58 8.0001,58.448 8.0001,59 C8.0001,59.552 7.5531,60 7.0001,60" id="Shape" fill="#000000"></path>
        <path d="M1.0001,54 C0.4471,54 0.0001,53.552 0.0001,53 C0.0001,49.14 3.1411,46 7.0001,46 C7.5531,46 8.0001,46.448 8.0001,47 C8.0001,47.552 7.5531,48 7.0001,48 C4.2431,48 2.0001,50.243 2.0001,53 C2.0001,53.552 1.5531,54 1.0001,54" id="Shape" fill="#000000"></path>
    </g>
    <path d="M666.913089,247.483736 C671.56627,233.175563 663.278232,214.688477 646.957961,203.220336 C646.485338,202.88868 645.839465,202.934808 645.422239,203.33594 C645.003836,203.735309 644.933111,204.372343 645.251341,204.852876 C652.305351,215.480816 654.118058,226.248305 650.326454,234.640512 C639.024693,227.077416 618.583967,209.422399 618.370647,209.238484 C617.918059,208.844946 617.239177,208.844946 616.784235,209.238484 C616.329293,209.631455 616.237358,210.296501 616.568562,210.796287 C616.886792,211.275087 622.598365,219.859996 628.748375,227.324409 C624.314398,224.186591 619.420803,220.214402 610.716716,213.003979 C610.264128,212.627958 609.602927,212.633788 609.155046,213.01507 C608.707164,213.39692 608.604638,214.043879 608.912247,214.543695 C617.534988,228.56637 631.886984,241.570131 638.961029,247.531628 C622.656085,254.769495 604.062251,242.859356 603.870143,242.734395 C603.389253,242.422589 602.75753,242.486834 602.353278,242.887368 C601.949026,243.287902 601.884185,243.916177 602.197708,244.390283 C605.753604,249.748049 610.641315,253.730163 616.885615,258.061452 C625.197217,263.827943 633.468719,266 640.512139,266 C647.792443,266 653.759759,263.678468 657.098774,260.603699 C657.112925,260.586181 658.608578,259.05639 661.921675,260.017487 C664.562949,260.782382 668.201336,263.663281 669.474226,264.964195 C669.780658,265.277167 670.23916,265.400933 670.663447,265.284162 C671.08894,265.166226 671.416584,264.827575 671.516756,264.401331 C671.83734,263.029207 672,261.613854 672,260.19617 C672,255.421118 670.199061,250.935691 666.913089,247.483736 Z" id="Shape" stroke="#000000" stroke-width="2.79999995" fill="none" opacity="0.100000001"></path>
    <g id="droplet" stroke="none" stroke-width="1" fill="none" fill-rule="evenodd" transform="translate(492.800406, 392.023367) rotate(-334.000000) translate(-492.800406, -392.023367) translate(475.800406, 368.023367)" fill-opacity="0" opacity="0.1">
        <path d="M17.8,0.9 C17.4,0.4 16.6,0.4 16.2,0.9 C12.8,5.3 0.1,22.5 0.1,30.6 C0.1,39.9 7.7,47.5 17,47.5 C26.3,47.5 33.9,39.9 33.9,30.6 C33.9,22.5 21.2,5.3 17.8,0.9 Z" id="Shape" stroke="#000000" stroke-width="3" fill="#FFFFFF"></path>
    </g>
    <path d="M910.866657,386.503053 C909.651218,378.707746 902.91566,372.769327 894.997432,372.769327 C889.733508,372.769327 884.940269,375.334604 881.919545,379.639204 C880.587925,379.283502 879.199703,379.093593 877.775732,379.093593 C869.860483,379.093593 863.121946,385.028998 861.906507,392.824304 C856.308933,393.261396 851.888071,398.012132 851.888071,403.781743 C851.888071,409.84074 856.758765,414.769327 862.74659,414.769327 L891.747324,414.769327 C896.534605,414.769327 900.743956,412.240223 903.171855,408.445061 L910.026574,408.445061 C916.017378,408.445061 920.888071,403.516474 920.888071,397.457477 C920.882113,391.684851 916.464231,386.940144 910.866657,386.503053 Z M891.747324,411.996055 L862.74659,411.996055 C858.269127,411.996055 854.625788,408.309412 854.625788,403.781743 C854.625788,399.25709 858.263169,395.567432 862.752548,395.567432 L862.761485,395.567432 C862.80617,395.57949 863.01768,395.600591 863.065345,395.600591 C863.762435,395.669923 864.432714,395.070052 864.489315,394.322474 C865.016601,387.335034 870.852496,381.863851 877.775732,381.863851 C882.828146,381.863851 887.389021,384.706455 889.679886,389.279339 C889.924165,389.776719 890.445493,390.087205 890.990653,390.03596 C891.145562,390.026917 891.288555,390.005816 891.437506,389.984715 C891.535813,389.969643 891.6371,389.951556 891.747324,389.951556 C897.753023,389.951556 902.632653,394.895215 902.632653,400.972298 C902.632653,407.049381 897.753023,411.996055 891.747324,411.996055 Z M910.026574,405.671789 L904.506455,405.671789 C905.039699,404.200749 905.373349,402.627218 905.373349,400.972298 C905.373349,393.369915 899.257426,387.178284 891.747324,387.178284 L891.669869,387.178284 C889.992682,384.254291 887.493287,382.014572 884.570871,380.636979 C887.088141,377.420586 890.877451,375.53657 894.997432,375.53657 C901.920668,375.53657 907.756563,381.007754 908.283849,387.995194 C908.343429,388.739757 908.980939,389.351685 909.710798,389.27331 L910.026574,389.240152 C914.507016,389.240152 918.147375,392.92378 918.147375,397.454463 C918.147375,401.985145 914.507016,405.671789 910.026574,405.671789 Z" id="Shape" stroke="none" fill="#000000" fill-rule="evenodd" opacity="0.1" transform="translate(886.388071, 393.769327) rotate(-31.000000) translate(-886.388071, -393.769327) "></path>
    <g id="noun_919717_cc" stroke="none" stroke-width="1" fill="none" fill-rule="evenodd" transform="translate(830.000000, 203.000000)" opacity="0.1">
        <g id="Group" fill="#000000">
            <path d="M52.7546703,1.13626374 C39.3685165,-2.13472527 25.0002198,1.88450549 15.2555495,11.6285714 C5.71395604,21.1707692 1.66510989,35.1456044 4.57225275,48.2906044 L1.04681319,51.816044 C0.456318681,52.4065385 0.456318681,53.3626923 1.04681319,53.9525824 C1.34175824,54.2481319 1.72857143,54.3956044 2.11538462,54.3956044 C2.5021978,54.3956044 2.88901099,54.2481319 3.18395604,53.9531868 L6.70818681,50.428956 C9.51741758,51.0502747 12.3635165,51.3579121 15.1975275,51.3579121 C25.623956,51.3579121 35.8684615,47.248022 43.3708242,39.7456593 C53.1154945,30.0003846 57.1359341,15.6314835 53.8637363,2.24532967 C53.7295604,1.69774725 53.3022527,1.27043956 52.7546703,1.13626374 Z M41.2342857,37.6085165 C32.8833516,45.9588462 20.8570879,49.7538462 9.28835165,47.8481868 L45.4916484,11.6448901 C46.0821429,11.0543956 46.0821429,10.0982418 45.4916484,9.50835165 C44.9017582,8.91785714 43.9443956,8.91785714 43.3551099,9.50835165 L7.15181319,45.7116484 C5.24554945,34.1429121 9.04175824,22.1166484 17.3920879,13.7651099 C26.1763736,4.98142857 39.0264286,1.23236264 51.1360989,3.8639011 C53.7682418,15.9717582 50.0185714,28.823022 41.2342857,37.6085165 Z" id="Shape"></path>
        </g>
    </g>
    <g id="noun_992982_cc" stroke="none" stroke-width="1" fill="none" fill-rule="evenodd" transform="translate(1022.000000, 520.000000)" opacity="0.1">
        <g id="Group" fill="#000000">
            <path d="M24,0.51 C12.687,0.51 0.662,4.184 0.662,10.992 L0.662,47.009 C0.662,53.817 12.686,57.491 24,57.491 C35.314,57.491 47.338,53.817 47.338,47.009 L47.338,10.992 C47.338,4.184 35.313,0.51 24,0.51 Z M43.338,35.002 C43.338,37.645 35.805,41.484 24,41.484 C12.195,41.484 4.662,37.645 4.662,35.002 L4.662,29.048 C9.136,31.952 16.713,33.478 24,33.478 C31.287,33.478 38.864,31.952 43.338,29.048 L43.338,35.002 Z M43.338,22.998 C43.338,25.641 35.805,29.479 24,29.479 C12.195,29.479 4.662,25.64 4.662,22.998 L4.662,17.044 C9.136,19.948 16.713,21.475 24,21.475 C31.287,21.475 38.864,19.949 43.338,17.044 L43.338,22.998 Z M24,4.51 C35.805,4.51 43.338,8.349 43.338,10.992 C43.338,13.635 35.805,17.474 24,17.474 C12.195,17.474 4.662,13.635 4.662,10.992 C4.662,8.349 12.195,4.51 24,4.51 Z M24,53.49 C12.195,53.49 4.662,49.651 4.662,47.008 L4.662,41.054 C9.136,43.958 16.713,45.485 24,45.485 C31.287,45.485 38.864,43.959 43.338,41.054 L43.338,47.008 C43.338,49.651 35.805,53.49 24,53.49 Z" id="Shape"></path>
        </g>
    </g>
    <g id="noun_11180" opacity="0.119999997" stroke="none" stroke-width="1" fill="none" fill-rule="evenodd" transform="translate(991.627876, 278.673394) scale(-1, 1) rotate(30.000000) translate(-991.627876, -278.673394) translate(957.127876, 263.173394)">
        <g id="Group" fill="#000000">
            <path d="M68.15,0.2 L1.125,9.175 L0.4,9.275 L0.875,9.825 C1.0622584,10.043468 1.3606789,10.262738 1.8,10.575 C2.2393211,10.887262 2.8194884,11.273918 3.475,11.7 C4.7860232,12.552165 6.423609,13.577867 8.05,14.575 C11.175809,16.491418 13.969194,18.13813 14.2,18.275 L11.95,26.025 L11.7,26.85 L12.5,26.5 L19.725,23.2 L19.825,29.525 L19.825,30.225 L20.425,29.875 L68.125,1.1 L68.325,1 L68.325,0.975 L68.4,0.925 L68.15,0.2 L68.15,0.2 Z M65.625,1.35 L12.975,25.4 L15.025,18.2 L15.125,17.9 L14.85,17.725 C14.85,17.725 11.72125,15.86526 8.475,13.875 C6.851875,12.87987 5.200195,11.870127 3.9,11.025 C3.2499024,10.602437 2.6988317,10.226253 2.275,9.925 C2.221821,9.8872 2.224141,9.8861 2.175,9.85 L65.625,1.35 L65.625,1.35 Z M61.75,4 L20.625,28.825 L20.525,22.825 L61.75,4 Z" id="Shape"></path>
            <polygon id="Shape" points="68.05 0.45 14.55 17.875 14.675 18.275 68.175 0.825"></polygon>
        </g>
    </g>
    <g id="noun_824422_cc" stroke="none" stroke-width="1" fill="none" fill-rule="evenodd" transform="translate(495.929630, 619.956327) rotate(-23.000000) translate(-495.929630, -619.956327) translate(459.429630, 590.956327)" opacity="0.1">
        <g id="Group" fill="#000000">
            <path d="M72.2760331,10.7541667 C72.0950413,10.33125 71.6727273,10.0291667 71.1900826,10.0291667 L32.638843,10.0291667 L25.9421488,0.90625 C25.7008264,0.604166667 25.338843,0.422916667 24.9768595,0.422916667 L11.3421488,0.422916667 L11.2818182,0.422916667 L11.161157,0.422916667 L11.0404959,0.422916667 C10.9801653,0.422916667 10.9801653,0.422916667 10.9198347,0.483333333 C10.8595041,0.483333333 10.8595041,0.483333333 10.7991736,0.54375 C10.738843,0.54375 10.738843,0.604166667 10.6785124,0.604166667 C10.6181818,0.604166667 10.6181818,0.664583333 10.5578512,0.664583333 L10.4975207,0.725 C10.4371901,0.725 10.4371901,0.785416667 10.3768595,0.785416667 C10.3768595,0.785416667 10.3768595,0.785416667 10.3165289,0.845833333 L0.301652893,12.7479167 C-7.07420234e-15,13.1104167 -0.0603305785,13.59375 0.120661157,14.0166667 C0.301652893,14.4395833 0.723966942,14.7416667 1.20661157,14.7416667 L10.1355372,14.7416667 L10.1355372,32.9875 L10.1355372,32.9875 C10.1355372,33.1083333 10.1355372,33.2291667 10.1958678,33.2895833 L10.1958678,33.35 C10.2561983,33.4708333 10.2561983,33.53125 10.3768595,33.6520833 L10.3768595,33.6520833 L27.1487603,56.8520833 C27.2090909,56.9729167 27.3297521,57.1541667 27.4504132,57.275 C27.6917355,57.5166667 27.9933884,57.6375 28.2950413,57.6375 L28.2950413,57.6375 L28.2950413,57.6375 L65.2173554,57.6375 C65.7603306,57.6375 66.1826446,57.3354167 66.3636364,56.8520833 C66.5446281,56.36875 66.3636364,55.825 66.0016529,55.5229167 L45.9115702,39.5729167 L72.0347107,12.0833333 C72.3966942,11.7208333 72.5173554,11.1770833 72.2760331,10.7541667 Z M12.5487603,2.77916667 L24.3735537,2.77916667 L30.4669421,11.1166667 L12.5487603,30.0270833 L12.5487603,2.77916667 Z M3.80082645,12.325 L10.1355372,4.89375 L10.1355372,12.325 L3.80082645,12.325 L3.80082645,12.325 Z M61.7181818,55.2208333 L31.0702479,55.2208333 L44.2826446,41.325 L61.7181818,55.2208333 Z M28.3553719,54.4958333 L12.9107438,33.16875 L32.5785124,12.4458333 L68.3545455,12.4458333 L28.3553719,54.4958333 Z" id="Shape"></path>
        </g>
    </g>
    <g id="noun_750644_cc" stroke="none" stroke-width="1" fill="none" fill-rule="evenodd" transform="translate(1013.000000, 360.000000)" opacity="0.1">
        <g id="Artboard-11" fill="#000000">
            <path d="M19.4227148,18.1607928 L16.324457,18.0049805 C13.8257603,17.8797027 11.3903688,18.8155575 9.61855663,20.5818759 L4.98015907,25.2202876 C4.58305015,25.6166687 4.4103361,26.1853009 4.51991009,26.7355807 C4.62948407,27.2858605 5.0068441,27.7449591 5.52550039,27.9589881 L12.4711112,30.8355225 C11.9079007,32.4395972 11.443589,34.0767011 11.0807905,35.7376165 C10.9939341,36.1362962 11.1158683,36.5517768 11.4043996,36.840288 L20.1538317,45.5897469 C20.4423421,45.8782791 20.8578214,46.0002136 21.2564999,45.913357 C22.9173191,45.5501938 24.5543959,45.085887 26.1585789,44.523032 L29.0410973,51.4746568 C29.2551257,51.9933147 29.7142228,52.3706759 30.264501,52.4802502 C30.8147791,52.5898245 31.3834096,52.4171099 31.7797894,52.0199998 L36.418187,47.3815881 C38.1857861,45.6106049 39.1218658,43.1746132 38.9950745,40.6756673 L38.8392627,37.5774 C49.0029866,29.5890242 55.103618,17.7113342 56.9853452,2.2559546 C57.0598219,1.64169713 56.8477494,1.02730425 56.4102242,0.589777647 C55.9726989,0.152251041 55.3583079,-0.0598220704 54.7440523,0.0146548784 C39.2887198,1.8963878 27.4110661,8.00303063 19.4227148,18.1607928 Z M54.5462912,2.45371634 C52.6465857,17.255883 46.7017661,28.5642588 36.8916152,36.0612266 C36.5786339,36.3013285 36.4038347,36.6800612 36.4241797,37.0740065 L36.6159481,40.7955229 C36.7075657,42.6181761 36.0240118,44.3945511 34.7342209,45.6856313 L30.8569041,49.56296 L27.9324364,42.5454146 C27.6834169,41.9470076 27.0037918,41.6549803 26.3982894,41.8862088 C24.7618826,42.5106173 23.086311,43.0271033 21.3823479,43.4323461 L13.5917576,35.641732 C13.9971812,33.9378134 14.513662,32.2622485 15.1378902,30.6257752 C15.369118,30.0202709 15.0770916,29.3406437 14.4786864,29.0916235 L7.46715518,26.1791324 L11.344472,22.3018037 C12.635966,21.0126521 14.4120391,20.3292102 16.2345656,20.4200708 L19.9560706,20.6118398 C20.3460634,20.6139353 20.71269,20.4261504 20.9388835,20.1084463 C28.4358284,10.2982654 39.7441697,4.35342761 54.5462912,2.45371634 Z M39.3905968,23.5542948 C42.2276613,23.5568682 44.6711868,21.5543559 45.2260184,18.7720636 C45.7808501,15.9897713 44.2923515,13.2031484 41.6713115,12.1172856 C39.0502715,11.0314229 36.027197,11.9489598 34.4518599,14.30847 C32.8765227,16.6679802 33.1879832,19.8118473 35.1956636,21.8163886 C36.3078249,22.9295989 37.8170237,23.5548403 39.3905968,23.5542948 L39.3905968,23.5542948 Z M36.8916152,15.0984822 C38.0898866,13.9036761 39.9651937,13.7214607 41.3710659,14.6632335 C42.776938,15.6050063 43.3219969,17.4085888 42.6730203,18.9713592 C42.0240436,20.5341296 40.3616989,21.421031 38.7022621,21.0898554 C37.0428253,20.7586798 35.8482641,19.3016225 35.8488746,17.609457 C35.847222,16.6668065 36.2226906,15.7626582 36.8916152,15.0984822 Z M1.64818356,57 L1.64818356,57 C11.2366023,56.8322022 15.9109564,51.7623103 17.48106,49.5869311 C17.8441433,49.0799726 17.8537104,48.4006985 17.5050485,47.8837155 C17.1563866,47.3667325 16.523023,47.1210641 15.9169492,47.2677253 C14.6600825,47.594533 13.353272,47.6839573 12.0636034,47.5314076 C10.6953748,47.3650593 9.61710708,46.2867883 9.45075931,44.9185555 C9.30688046,43.633674 9.40237974,42.3332543 9.73241911,41.0831763 C9.88604328,40.475153 9.64310341,39.8359564 9.12441433,39.4834612 C8.60572525,39.130966 7.92198516,39.1404014 7.41322032,39.5070751 C5.24384059,41.0831763 0.167971421,45.7515519 0.000174093211,55.3220216 C-0.00623177868,55.763793 0.164373249,56.189765 0.473957614,56.5049791 C0.783541979,56.8201932 1.20636979,56.9984457 1.64818356,57 L1.64818356,57 Z M7.0416691,43.0188442 C7.0023788,43.7486739 7.02643995,44.480536 7.11358224,45.2062089 C7.41261341,47.669885 9.35423167,49.6115092 11.8179002,49.9105412 C12.5435914,49.9974147 13.275428,50.0214751 14.0052582,49.9824546 C11.9677192,51.9301081 8.3241201,54.2792779 2.44522087,54.5729241 C2.73287343,48.6999997 5.07604326,45.0503967 7.01769805,43.0128515 L7.0416691,43.0188442 Z" id="Shape"></path>
        </g>
    </g>
    <g id="noun_721997_cc" stroke="none" stroke-width="1" fill="none" fill-rule="evenodd" transform="translate(402.000000, 233.500000)" opacity="0.1">
        <g id="Group" fill="#000000">
            <g transform="translate(32.507997, 34.127065) rotate(-34.000000) translate(-32.507997, -34.127065) translate(11.507997, 7.127065)" id="Shape">
                <path d="M21,35.3514 L20.9976,35.3514 C18.6342,35.3526 16.7118,37.2762 16.713,39.6402 C16.7136,41.1366 17.5128,42.5154 18.7656,43.284 L18.7692,49.6842 L23.241,49.6818 L23.238,43.2816 C24.4896,42.5118 25.2876,41.1324 25.287,39.6354 C25.2852,37.2732 23.3622,35.3514 21,35.3514 Z M21.6882,41.493 L21.0012,41.7486 L20.3142,41.4936 C19.5354,41.205 19.0122,40.4598 19.0116,39.6384 C19.011,38.5422 19.9026,37.6494 20.9994,37.6488 L21,36.4998 L21,37.6488 C22.0962,37.6488 22.9878,38.5404 22.989,39.6366 C22.989,40.4574 22.4664,41.2038 21.6882,41.493 Z"></path>
                <path d="M41.8728,31.2198 C41.8716,27.942 39.2034,25.2756 35.9226,25.2756 L35.6544,25.2756 L35.6496,15.1122 C35.6454,6.7794 28.8624,1.95399252e-13 20.5218,1.95399252e-13 C12.1854,0.0042 5.406,6.7902 5.4102,15.1272 L5.4156,25.3254 C4.0722,25.4706 2.8272,26.0646 1.8588,27.0342 C0.7362,28.158 0.1182,29.652 0.1194,31.2402 L0.1278,48.0552 C0.1284,51.333 2.796,54 6.0738,54 L6.0774,54 L35.9376,53.985 C37.5258,53.9844 39.0192,53.3646 40.1418,52.2414 C41.2644,51.1176 41.8824,49.6236 41.8812,48.0354 L41.8728,31.2198 Z M20.5296,2.298 C27.5958,2.298 33.3474,8.0466 33.3516,15.1134 L33.357,26.2344 L30.5058,26.2344 L30.5004,15.1152 C30.4974,9.6204 26.025,5.1498 20.5302,5.1498 L20.5248,5.1498 C17.8656,5.151 15.363,6.1908 13.479,8.0766 C11.5944,9.9624 10.5576,12.4656 10.5588,15.1254 L10.5648,26.235 L7.7142,26.235 L7.7082,15.1272 C7.7046,8.0562 13.4532,2.3016 20.5296,2.298 Z M28.203,15.1158 L28.2078,25.2792 L12.8622,25.287 L12.8568,15.1236 C12.8544,10.893 16.2948,7.449 20.526,7.4466 L20.5302,6.2976 L20.5302,7.4466 C24.7584,7.4466 28.2006,10.887 28.203,15.1158 Z M38.5158,50.6166 C37.827,51.306 36.9108,51.6864 35.9358,51.687 L6.0762,51.702 L6.0744,52.851 L6.0744,51.702 C4.0632,51.702 2.4264,50.0658 2.4252,48.0546 L2.4168,31.2396 C2.4162,30.2646 2.7954,29.3484 3.4842,28.659 C4.173,27.969 5.0892,27.5892 6.0642,27.5886 L35.9256,27.5736 C37.9368,27.5736 39.5742,29.2098 39.5754,31.221 L39.5838,48.036 C39.5838,49.011 39.2046,49.9272 38.5158,50.6166 Z"></path>
            </g>
        </g>
    </g>
    <g id="noun_541072_cc" stroke="none" stroke-width="1" fill="none" fill-rule="evenodd" transform="translate(335.000000, 370.000000)" opacity="0.1">
        <g id="Group" fill="#000000">
            <g transform="translate(27.802559, 26.155445) rotate(30.000000) translate(-27.802559, -26.155445) translate(5.802559, 8.655445)" id="Shape">
                <path d="M29.5,0.183714493 C29.1373875,0.183714493 28.8159595,0.382041232 28.640625,0.67510942 C28.5505285,0.825703261 13.749547,32.8951112 13.59375,33.2498377 C13.5383995,33.3758605 13.5,33.5151022 13.5,33.6619754 C13.5,34.222264 13.9477155,34.6764681 14.5,34.6764681 C14.850921,34.6764681 15.1652925,34.4942267 15.34375,34.2167761 C15.4461515,34.0575717 30.320132,1.82528196 30.40625,1.64204783 C30.468339,1.50994109 30.5,1.35431333 30.5,1.19820725 C30.5,0.637918623 30.0522845,0.183714493 29.5,0.183714493 Z M10.9375,5.24032681 C10.6804975,5.26280797 10.433964,5.39076949 10.265625,5.5890587 C10.265625,5.5890587 0.30855935,16.6902009 0.234375,16.7801819 C0.0891865,16.9562857 0,17.1825536 0,17.4300913 C0,17.6591628 0.0769003,17.8626304 0.203125,18.0324464 C0.28297295,18.1398695 10.265625,29.2711239 10.265625,29.2711239 C10.5993105,29.7224996 11.3240425,29.7946387 11.734375,29.413787 C12.144708,29.0329357 12.1479465,28.2851293 11.734375,27.9078993 L2.34375,17.4300913 L11.734375,6.95228333 C12.011015,6.65788109 12.093074,6.19462362 11.921875,5.82683043 C11.750676,5.45903674 11.3373595,5.21064123 10.9375,5.24032681 Z M32.9375,5.24032681 C32.5584435,5.26080942 32.2029145,5.51660464 32.0625,5.87438478 C31.9220855,6.23216493 32.0041805,6.67308833 32.265625,6.95228333 L41.65625,17.4300913 L32.265625,27.9078993 C31.8520545,28.2851293 31.855293,29.0329357 32.265625,29.413787 C32.6759575,29.7946387 33.4006895,29.7224996 33.734375,29.2711239 C33.734375,29.2711239 43.681369,18.1888609 43.75,18.1117036 C43.909975,17.9318554 44,17.6914165 44,17.4300913 C44,17.1600075 43.888382,16.9144175 43.71875,16.7326275 C43.6528115,16.661963 33.734375,5.5890587 33.734375,5.5890587 C33.5382545,5.35978587 33.2364715,5.2277192 32.9375,5.24032681 Z"></path>
            </g>
        </g>
    </g>
</svg>