
<svg width="80px" height="133px" viewBox="0 0 80 133" version="1.1" xmlns="http://www.w3.org/2000/svg" xmlns:xlink="http://www.w3.org/1999/xlink">
    <!-- Generator: Sketch 42 (36781) - http://www.bohemiancoding.com/sketch -->
    <desc>Created with Sketch.</desc>
    <defs>
        <linearGradient x1="4.64410041%" y1="-8.46459634%" x2="136.017784%" y2="124.5192%" id="linearGradient-1">
            <stop stop-color="#20E2D7" offset="0%"></stop>
            <stop stop-color="#F9FEA5" offset="100%"></stop>
        </linearGradient>
    </defs>
    <path d="M78.9168331,3.82935189 C79.7571836,2.99026315 79.897242,1.59178192 79.0568915,0.752693179 C78.216541,-0.226243683 76.8159568,-0.226243683 75.9756063,0.612845056 L58.0481283,16.415683 L54.9668431,40.0500158 L2.72505199,40.0500158 C2.1648183,40.0500158 1.4645262,40.3297121 1.04435093,40.7492564 C0.624175671,41.1688008 0.48411725,41.8680414 0.48411725,42.4274339 L8.46744726,130.391903 C8.60750568,131.510688 9.4478562,132.349777 10.708382,132.349777 L65.3311662,132.349777 C66.4516336,132.349777 67.4320426,131.510688 67.572101,130.391903 L75.4153726,42.4274339 C75.4153726,41.8680414 75.2753141,41.1688008 74.8551389,40.7492564 C74.4349636,40.3297121 73.8747299,40.0500158 73.1744378,40.0500158 L59.1685957,40.0500158 L61.9697641,18.653253 L78.9168331,3.82935189 Z M70.9335031,44.3853076 L63.3703484,128.014485 L12.6691999,128.014485 L5.10604515,44.3853076 L54.4066094,44.3853076 L50.7650904,72.075236 L11.2686157,72.075236 L15.6104267,123.679193 L60.4291215,123.679193 L64.7709326,72.075236 L55.1069015,72.075236 L58.7484205,44.3853076 L70.9335031,44.3853076 L70.9335031,44.3853076 Z" id="Shape" stroke="none" fill="url(#linearGradient-1)" fill-rule="evenodd"></path>
</svg>