
<svg width="109px" height="107px" viewBox="377 198 109 107" version="1.1" xmlns="http://www.w3.org/2000/svg" xmlns:xlink="http://www.w3.org/1999/xlink">
    <!-- Generator: Sketch 42 (36781) - http://www.bohemiancoding.com/sketch -->
    <desc>Created with Sketch.</desc>
    <defs>
        <linearGradient x1="4.64410041%" y1="-8.46459634%" x2="136.017784%" y2="124.5192%" id="linearGradient-1">
            <stop stop-color="#20E2D7" offset="0%"></stop>
            <stop stop-color="#F9FEA5" offset="100%"></stop>
        </linearGradient>
    </defs>
    <g id="noun_750644_cc" stroke="none" stroke-width="1" fill="none" fill-rule="evenodd" transform="translate(378.000000, 198.000000)">
        <g id="Artboard-11" fill="url(#linearGradient-1)">
            <path d="M36.4601839,34.0913127 L30.6441561,33.798823 C25.9536201,33.5636525 21.3819203,35.3204326 18.055887,38.636153 L9.34871966,47.3433469 C8.60326958,48.0874307 8.27905198,49.1548631 8.48474349,50.1878445 C8.69043501,51.2208259 9.39881261,52.0826424 10.3724306,52.4844162 L23.4106824,57.8842264 C22.3534276,60.8953842 21.4818249,63.9685441 20.8007821,67.0864029 C20.637736,67.8348017 20.8666299,68.6147389 21.4082589,69.1563302 L37.8326315,85.5807529 C38.3742211,86.1223835 39.1541559,86.3512782 39.9025524,86.1882315 C43.0202305,85.5065042 46.0933397,84.6349107 49.1047008,83.5783233 L54.5157441,96.6278646 C54.9175166,97.6014855 55.7793306,98.3098653 56.8123088,98.5155574 C57.8452871,98.7212495 58.9127162,98.397031 59.6567977,97.6515786 L68.363965,88.9443846 C71.6820896,85.6199075 73.439292,81.0470809 73.2012802,76.3560771 L72.9087914,70.5400316 C91.9880625,55.5443086 103.440125,33.2475924 106.97249,4.23486215 C107.112297,3.08178233 106.714196,1.92844833 105.892877,1.10712646 C105.071558,0.285804585 103.918227,-0.112297571 102.765151,0.0275100348 C73.7525092,3.55988587 51.455861,15.0232329 36.4601839,34.0913127 Z M102.393915,4.6060991 C98.8278012,32.3926224 87.6682275,53.6206263 69.2526811,67.6938816 C68.6651548,68.1445991 68.337023,68.8555535 68.3752146,69.5950648 L68.7352009,76.5810692 C68.9071848,80.0025411 67.6240221,83.3371398 65.2028358,85.7607466 L57.9243639,93.0392407 L52.4345736,79.8659537 C51.967116,78.7426282 50.6913285,78.1944366 49.5546836,78.6284972 C46.4828322,79.8006325 43.337461,80.7701765 40.1387934,81.5308952 L25.5143521,66.9064093 C26.2754104,63.7078251 27.2449445,60.5624665 28.4167412,57.4904902 C28.8508005,56.3538419 28.3026106,55.0780505 27.1792885,54.6105915 L14.0172913,49.1432836 L21.2957632,41.8647895 C23.7201467,39.4448032 27.0541786,38.1618507 30.4754125,38.3324136 L37.4613956,38.692401 C38.1934874,38.6963348 38.8817164,38.3438261 39.3063252,37.7474342 C53.3795375,19.3318315 74.6074765,8.17222375 102.393915,4.6060991 Z M73.9437519,44.2159568 C79.2694694,44.2207877 83.8564383,40.4616856 84.8979644,35.238786 C85.9394906,30.0158864 83.1452914,24.7848574 78.2250935,22.7464835 C73.3048956,20.7081096 67.6300014,22.4305035 64.6727896,26.8597594 C61.7155778,31.2890154 62.3002492,37.1906608 66.0690527,40.9535715 C68.1567941,43.0432821 70.9898516,44.2169809 73.9437519,44.2159568 L73.9437519,44.2159568 Z M69.2526811,28.3427648 C71.5020678,26.0998832 75.0223812,25.7578298 77.6614745,27.5257191 C80.3005679,29.2936084 81.3237486,32.6792808 80.1054942,35.6129024 C78.8872397,38.5465241 75.7666979,40.2114091 72.6516148,39.5897285 C69.5365317,38.968048 67.2941098,36.2328704 67.2952559,33.0563491 C67.2921536,31.2868122 67.9969806,29.5895514 69.2526811,28.3427648 Z M3.09395862,107 L3.09395862,107 C21.093271,106.685011 29.8679357,97.1678456 32.8153231,93.0842391 C33.4969006,92.1325802 33.5148599,90.8574516 32.8603542,89.8869747 C32.2058486,88.9164979 31.0169029,88.4553309 29.8791853,88.7306422 C27.5198041,89.3441233 25.0666685,89.51199 22.6457117,89.2256248 C20.0772826,88.9133569 18.0531659,86.8892341 17.740899,84.3207972 C17.4708107,81.9088267 17.6500813,79.4676879 18.2696288,77.1210502 C18.5580111,75.9796731 18.1019661,74.7797778 17.1282866,74.1180763 C16.1546071,73.4563748 14.8710949,73.4740868 13.9160452,74.1624042 C9.84370075,77.1210502 0.315314773,85.8844922 0.000326806554,103.850111 C-0.0116982512,104.679401 0.308560309,105.479033 0.889709907,106.07075 C1.47085951,106.662468 2.26458891,106.997082 3.09395862,107 L3.09395862,107 Z M13.2185718,80.7546725 C13.1448164,82.1247036 13.1899838,83.49855 13.3535667,84.8607782 C13.9149059,89.4855735 17.5596981,93.1303769 22.1844793,93.6917178 C23.5467418,93.854796 24.9205402,93.8999621 26.2905724,93.826713 C22.4657185,97.4828345 15.6259798,101.89268 4.59015146,102.44391 C5.13013083,91.4192977 9.52871278,84.5682885 13.1735735,80.7434229 L13.2185718,80.7546725 Z" id="Shape"></path>
        </g>
    </g>
</svg>